<svg xmlns="http://www.w3.org/2000/svg" version="1.1" xmlns:xlink="http://www.w3.org/1999/xlink" xmlns:svgjs="http://svgjs.dev/svgjs" width="1000" height="429" viewBox="0 0 1000 429"><g transform="matrix(1,0,0,1,-0.606029506619393,0.09757780120307302)"><svg viewBox="0 0 396 170" data-background-color="#000000" preserveAspectRatio="xMidYMid meet" height="429" width="1000" xmlns="http://www.w3.org/2000/svg" xmlns:xlink="http://www.w3.org/1999/xlink"><defs></defs><g id="tight-bounds" transform="matrix(1,0,0,1,0.23998768462126918,-0.038667193949933676)"><svg viewBox="0 0 395.52 170.07733438789987" height="170.07733438789987" width="395.52"><g><svg viewBox="0 0 467.4315968445468 200.99999999999997" height="170.07733438789987" width="395.52"><g><rect width="8.333590128483891" height="200.99999999999997" x="174.260977658937" y="0" fill="#f5d300f33" opacity="1" stroke-width="0" stroke="transparent" fill-opacity="1" class="rect-o-0" data-fill-palette-color="primary" rx="1%" id="o-0" data-palette-color="#f5d300f33"></rect></g><g transform="matrix(1,0,0,1,204.4102487520384,0.4999999999999858)"><svg viewBox="0 0 263.0213480925084 200" height="200" width="263.0213480925084"><g><svg viewBox="0 0 263.0213480925084 200" height="200" width="263.0213480925084"><g><svg viewBox="0 0 263.0213480925084 200" height="200" width="263.0213480925084"><g transform="matrix(1,0,0,1,0,0)"><svg width="263.0213480925084" viewBox="1.810003638267517 -36.040000915527344 104.99998474121094 76.05000305175781" height="200" data-palette-color="#f5d300f33"><svg></svg><svg></svg><g class="undefined-text-0" data-fill-palette-color="primary" id="text-0"><path d="M17.87-9.33v0c0-1.447-0.37-2.54-1.11-3.28-0.74-0.74-2.087-1.51-4.04-2.31v0c-3.567-1.347-6.13-2.93-7.69-4.75-1.56-1.813-2.34-3.957-2.34-6.43v0c0-2.993 1.06-5.397 3.18-7.21 2.127-1.82 4.823-2.73 8.09-2.73v0c2.187 0 4.133 0.46 5.84 1.38 1.707 0.92 3.02 2.22 3.94 3.9 0.92 1.673 1.38 3.577 1.38 5.71v0h-7.15c0-1.66-0.353-2.927-1.06-3.8-0.713-0.867-1.737-1.3-3.07-1.3v0c-1.253 0-2.23 0.37-2.93 1.11-0.7 0.74-1.05 1.737-1.05 2.99v0c0 0.98 0.393 1.863 1.18 2.65 0.78 0.787 2.163 1.603 4.15 2.45v0c3.467 1.253 5.983 2.793 7.55 4.62 1.573 1.82 2.36 4.137 2.36 6.95v0c0 3.093-0.987 5.513-2.96 7.26-1.967 1.74-4.643 2.61-8.03 2.61v0c-2.293 0-4.383-0.473-6.27-1.42-1.893-0.94-3.37-2.29-4.43-4.05-1.067-1.76-1.6-3.837-1.6-6.23v0h7.2c0 2.053 0.4 3.543 1.2 4.47 0.793 0.927 2.093 1.39 3.9 1.39v0c2.507 0 3.76-1.327 3.76-3.98zM45.8-35.55h7.18v24.61c-0.033 3.693-1.05 6.523-3.05 8.49-2.007 1.96-4.88 2.94-8.62 2.94v0c-3.807 0-6.717-0.993-8.73-2.98-2.007-1.987-3.01-4.86-3.01-8.62v0-24.44h7.22v24.47c0 2.013 0.327 3.453 0.98 4.32 0.653 0.86 1.833 1.29 3.54 1.29 1.707 0 2.877-0.427 3.51-1.28 0.64-0.853 0.967-2.257 0.98-4.21v0zM73.44-9.33v0c0-1.447-0.37-2.54-1.11-3.28-0.74-0.74-2.087-1.51-4.04-2.31v0c-3.567-1.347-6.13-2.93-7.69-4.75-1.567-1.813-2.35-3.957-2.35-6.43v0c0-2.993 1.063-5.397 3.19-7.21 2.12-1.82 4.817-2.73 8.09-2.73v0c2.18 0 4.127 0.46 5.84 1.38 1.707 0.92 3.02 2.22 3.94 3.9 0.92 1.673 1.38 3.577 1.38 5.71v0h-7.15c0-1.66-0.357-2.927-1.07-3.8-0.707-0.867-1.727-1.3-3.06-1.3v0c-1.253 0-2.23 0.37-2.93 1.11-0.7 0.74-1.05 1.737-1.05 2.99v0c0 0.98 0.39 1.863 1.17 2.65 0.78 0.787 2.163 1.603 4.15 2.45v0c3.467 1.253 5.987 2.793 7.56 4.62 1.567 1.82 2.35 4.137 2.35 6.95v0c0 3.093-0.983 5.513-2.95 7.26-1.967 1.74-4.643 2.61-8.03 2.61v0c-2.293 0-4.387-0.473-6.28-1.42-1.887-0.94-3.363-2.29-4.43-4.05-1.067-1.76-1.6-3.837-1.6-6.23v0h7.21c0 2.053 0.397 3.543 1.19 4.47 0.8 0.927 2.103 1.39 3.91 1.39v0c2.507 0 3.76-1.327 3.76-3.98z" data-fill-palette-color="primary" fill="#f5d300f33" opacity="1"></path><path d="M12.06 39.52h-9.2v-35.55h9.4c4.147 0 7.453 1.32 9.92 3.96 2.467 2.633 3.723 6.247 3.77 10.84v0 5.76c0 4.673-1.233 8.34-3.7 11-2.467 2.66-5.863 3.99-10.19 3.99zM12.65 9.95h-2.62v23.61h2.15c2.393 0 4.08-0.63 5.06-1.89 0.973-1.26 1.483-3.437 1.53-6.53v0-6.18c0-3.32-0.463-5.633-1.39-6.94-0.927-1.313-2.503-2.003-4.73-2.07zM49.46 18.35v5.79h-11.18v9.42h13.23v5.96h-20.41v-35.55h20.36v5.98h-13.18v8.4zM61.25 3.97l5.96 25.78 5.98-25.78h8.01l-10.25 35.55h-7.47l-10.18-35.55zM99.56 30.19v0c0-1.447-0.37-2.54-1.11-3.28-0.74-0.74-2.087-1.51-4.04-2.31v0c-3.567-1.347-6.13-2.93-7.69-4.75-1.56-1.813-2.34-3.957-2.34-6.43v0c0-2.993 1.06-5.397 3.18-7.21 2.127-1.82 4.823-2.73 8.09-2.73v0c2.187 0 4.133 0.46 5.84 1.38 1.707 0.92 3.02 2.22 3.94 3.9 0.92 1.673 1.38 3.577 1.38 5.71v0h-7.15c0-1.66-0.353-2.927-1.06-3.8-0.713-0.867-1.737-1.3-3.07-1.3v0c-1.253 0-2.23 0.37-2.93 1.11-0.7 0.74-1.05 1.737-1.05 2.99v0c0 0.98 0.39 1.863 1.17 2.65 0.787 0.787 2.173 1.603 4.16 2.45v0c3.467 1.253 5.983 2.793 7.55 4.62 1.573 1.82 2.36 4.137 2.36 6.95v0c0 3.093-0.987 5.513-2.96 7.26-1.967 1.74-4.643 2.61-8.03 2.61v0c-2.293 0-4.383-0.473-6.27-1.42-1.893-0.94-3.37-2.29-4.43-4.05-1.067-1.76-1.6-3.837-1.6-6.23v0h7.2c0 2.053 0.397 3.543 1.19 4.47 0.8 0.927 2.103 1.39 3.91 1.39v0c2.507 0 3.76-1.327 3.76-3.98z" data-fill-palette-color="secondary" fill="#f5d300fff" opacity="1"></path></g></svg></g></svg></g></svg></g></svg></g><g transform="matrix(1,0,0,1,0,0.4999999999999716)"><svg viewBox="0 0 152.4452966943195 200.00000000000003" height="200.00000000000003" width="152.4452966943195"><g><svg xmlns="http://www.w3.org/2000/svg" xmlns:xlink="http://www.w3.org/1999/xlink" version="1.1" x="0" y="0" viewBox="11.763429641723633 1.160815715789795 67.8680419921875 89.0392074584961" style="enable-background:new 0 0 91 91;" xml:space="preserve" height="200.00000000000003" width="152.4452966943195" class="icon-icon-0" data-fill-palette-color="accent" id="icon-0"><g fill="#f5d300fff" data-fill-palette-color="accent"><path d="M21.5 65.1c-3.1 1.4-4.8 5.6-5.7 8.7-1.4 4.4-2.2 10.7 0.1 14.9 1.1 2 4.1 1 4.1-1.1 0-3.8-1-7.2-0.1-11.1 0.5-2.4 1.4-4.5 2.7-6.5 1.1 1.7 2.8 2.9 4.9 3.3 3.6 0.7 7.5-1 10.6-2.7 3.3-1.9 6.3-4.5 8.8-7.4 2.7-3.1 4.7-6.8 7.4-9.8 1-1.1 3.1-3 4.7-1.8 1.6 1.2 0 5.1-0.5 6.5-1.5 4.1-3.9 7.7-6.9 10.9-6.5 6.9-15 10.3-23.2 14.5-1.6 0.8-0.5 3.2 1.2 2.8 4.8-1.2 9.6-3.1 14-5.6 2.9 3.1 8.3 4.5 12.2 5.2 2.4 0.4 3.5-3.3 1-3.7-2.2-0.4-4.5-0.9-6.6-1.6-1.3-0.4-2.5-1.1-3.7-1.6 2.5-1.7 4.8-3.5 6.9-5.5 0.8 0.5 1.6 0.9 2.5 1.3 1.6 0.7 4.1 1.6 5.6 0.5 0.9-0.6 1.2-1.9 0.3-2.7-1.2-1.1-3-1-4.5-1.4-0.5-0.1 0.6-0.4 1.6-0.9 1.6-0.8 3.1-1.7 4.6-2.6 0.8 1 1.8 1.8 2.5 3 1.2 1.9 1.5 4.1 1.6 6.3 0.2 3.8-0.9 8 0.1 11.7 0.6 2 3.5 2 4 0 0.8-2.6 0.4-5.5 0.3-8.2 0-2.6-0.1-5.4-0.8-7.9-0.7-2.4-2.7-5.6-5.3-6.4 2.7-2 5.2-4.3 7.3-7 4-5.2 5.7-11.9 6.2-18.3 1.2-13.2-2.1-26.6-13.8-34.1-11-7.1-25.8-7.3-37.4-1.7-11.8 5.8-16.2 19.8-16.4 32.1C11.5 45.6 12.9 60.1 21.5 65.1zM39.2 63.7c-0.5 0.4-1.9 1.4-3.7 2.3 0-0.6-4.2-7-5.1-9.9-0.5-1.6-1.5-7 1.6-6.7 1.8 0.2 3.9 4.9 4.8 6.4 1.3 2.2 2.1 4.7 3.8 6.7C40.1 62.9 39.7 63.3 39.2 63.7zM26 11.6C30 7.9 36.6 6 42 5.6c5.7-0.4 11.7 0.6 16.9 3 4.6 2.1 8.8 5.5 11.4 9.8 3.1 5 3.7 10.9 3.8 16.6 0.1 6.3-0.8 13.5-4.2 18.9-2 3.2-5.1 6.1-8.6 8.1 0 0 0-0.1 0-0.1 1.4-3.1 3.3-7.7 2.3-11.1-0.9-3.1-4-4.6-7.1-4.3-3.9 0.5-6.3 3.8-8.3 6.7-1.5 2.1-3.1 4.2-4.8 6.2-0.8-3.8-3.2-8.2-5.1-11-2.2-3.4-5.6-5.7-9.6-3.5-9.1 4.8-2.2 17.6 2.3 23 0 0 0 0 0.1 0.1-2.5 0.8-4.6 0.7-4.6-1.8 0-0.2 0.1-1.2-0.3-1.5-6.9-5.6-9.1-13.7-9.8-22.3C15.5 31.7 17.6 19.3 26 11.6z" fill="#f5d300fff" data-fill-palette-color="accent"></path><path d="M34.2 36.4c1-1.9 0.6-4 0.7-6.1 0.1-1.9 0.3-3.9-0.2-5.8-0.5-1.9-3.4-2.4-4.4-0.6-1 1.9-1.2 4-1.4 6.1-0.2 2.2-0.6 4.3 0.4 6.3C30.3 38.2 33.3 38.2 34.2 36.4z" fill="#f5d300fff" data-fill-palette-color="accent"></path><path d="M59.1 36.4c1-1.9 0.6-4 0.7-6.1 0.1-1.9 0.3-3.9-0.2-5.8-0.5-1.9-3.4-2.4-4.4-0.6-1 1.9-1.2 4-1.4 6.1-0.2 2.2-0.6 4.3 0.4 6.3C55.1 38.2 58.1 38.2 59.1 36.4z" fill="#f5d300fff" data-fill-palette-color="accent"></path></g></svg></g></svg></g></svg></g></svg><rect width="395.52" height="170.07733438789987" fill="none" stroke="none" visibility="hidden"></rect></g></svg></g></svg>